<svg xmlns="http://www.w3.org/2000/svg" viewBox="0 0 32 32" fill="none">
  <rect width="32" height="32" rx="6" fill="#1a2d42"/>
  <path d="M10 22V10h3.2c1.4 0 2.4.35 3.1 1.04.7.7 1 1.6 1 2.7 0 .75-.2 1.4-.6 1.95-.4.55-1 1-1.7 1.35v.06c.9.15 1.6.55 2 1.2.45.65.65 1.4.65 2.25 0 1.15-.35 2.1-1.05 2.8-.7.72-1.7 1.07-3 1.07H10zm2.5-9.45h.9c.65 0 1.15-.2 1.5-.55.35-.36.52-.85.52-1.5 0-.6-.18-1.05-.55-1.35-.36-.3-.88-.45-1.55-.45h-1.32v3.85h.5zm0 4.95v-3.4h1.25c.65 0 1.15.2 1.5.6.35.4.52.95.52 1.65 0 .7-.2 1.25-.55 1.65-.36.4-.85.6-1.5.6h-1.22z" fill="#e0a635"/>
</svg>
